# xmcd
#
# Track frame offsets:
#	150
#	24940
#	45989
#	65524
#	84757
#	115700
#	141571
#	177930
#	191531
#	221885
#	244923
#	268237
#	289617
#	310590
#
# Disc length: 4427 seconds
#
# Revision: 1
# Processed by: cddbd v1.5.2PL0 Copyright (c) Steve Scherf et al.
# Submitted via: audiograbber 1.83.01
#
DISCID=c511490e
DTITLE=Various Artist - Jazziz Summer 2017 Disc 2
DYEAR=2017
DGENRE=Jazz
TTITLE0=Joey DeFrancesco and the People - So Near, So Far
TTITLE1=John Stein and Dave Zinno - Estate
TTITLE2=Maggie Herron - Wolf
TTITLE3=Jimmy Greene - Fun Circuits
TTITLE4=Mike Longo - Conflict of Internet
TTITLE5=Polly Gibbons - Ability to Swing
TTITLE6=Cameron Graves - Planerary Prince
TTITLE7=Jan Delay - Come on Daddy
TTITLE8=Sean Jones - Doc's Holiday
TTITLE9=Horn and Holland - Miracle
TTITLE10=JAMBa - Hey Bulldog
TTITLE11=Patrice Williamson - Comes Loves
TTITLE12=Kirk Fischer, feat. Kay-Ta Matsuno - Shades of Gray
TTITLE13=Sweet Lu Olutosin - Don't Forget to Remember
EXTD=This submission updated artist and album name, and numerous spelling errors.
EXTT0=
EXTT1=
EXTT2=
EXTT3=
EXTT4=
EXTT5=
EXTT6=
EXTT7=
EXTT8=
EXTT9=
EXTT10=
EXTT11=
EXTT12=
EXTT13=
PLAYORDER=
